<?xml version="1.0" encoding="UTF-8"?>
<svg version="1.1" xmlns="http://www.w3.org/2000/svg" width="512" height="512">
<path d="M0 0 C2.97374702 2.42185074 5.70064519 4.99973329 8.3125 7.8125 C9.09367187 8.5859375 9.09367187 8.5859375 9.890625 9.375 C18.33414927 18.1988632 23.99340256 29.87714509 26.3125 41.8125 C26.539375 42.905625 26.76625 43.99875 27 45.125 C28.72527523 65.48324766 24.7361417 84.24288767 11.66796875 100.2890625 C9.63164873 102.57772188 7.55897968 104.72648316 5.3125 106.8125 C4.5390625 107.59367187 4.5390625 107.59367187 3.75 108.390625 C-5.0738632 116.83414927 -16.75214509 122.49340256 -28.6875 124.8125 C-29.780625 125.039375 -30.87375 125.26625 -32 125.5 C-52.35824766 127.22527523 -71.11788767 123.2361417 -87.1640625 110.16796875 C-89.45272188 108.13164873 -91.60148316 106.05897968 -93.6875 103.8125 C-94.20828125 103.296875 -94.7290625 102.78125 -95.265625 102.25 C-103.70914927 93.4261368 -109.36840256 81.74785491 -111.6875 69.8125 C-111.914375 68.719375 -112.14125 67.62625 -112.375 66.5 C-114.10027523 46.14175234 -110.1111417 27.38211233 -97.04296875 11.3359375 C-95.00664873 9.04727812 -92.93397968 6.89851684 -90.6875 4.8125 C-90.12546875 4.26851562 -89.5634375 3.72453125 -88.984375 3.1640625 C-64.24104651 -19.86936117 -26.55516432 -19.26746885 0 0 Z " fill="#4376CE" transform="translate(298.6875,200.1875)"/>
<path d="M0 0 C-1.54127843 10.7744497 -3.98823701 21.3535107 -6.3684082 31.96655273 C-7.06768082 35.08560867 -7.76174169 38.20579157 -8.45507812 41.32617188 C-8.89813581 43.31256732 -9.34148453 45.29889787 -9.78515625 47.28515625 C-10.09610985 48.68194359 -10.09610985 48.68194359 -10.41334534 50.10694885 C-10.60702194 50.9689238 -10.80069855 51.83089874 -11.00024414 52.71899414 C-11.16964005 53.47555801 -11.33903595 54.23212189 -11.51356506 55.01161194 C-11.92586496 56.69696002 -12.45132985 58.35398954 -13 60 C-24.30966596 61.48601091 -35.62517966 62.69104676 -46.984375 63.7265625 C-48.65912542 63.88057215 -50.33386893 64.034657 -52.00860596 64.18881226 C-55.48750009 64.50830915 -58.96658429 64.82563543 -62.44580078 65.14160156 C-66.87264856 65.54398661 -71.29876984 65.95384754 -75.72475815 66.36556435 C-79.17165609 66.68501812 -82.61899634 66.99948338 -86.06647491 67.312603 C-87.69787853 67.46154947 -89.32912587 67.61221946 -90.96019745 67.76475906 C-99.98772576 68.60684612 -108.92178385 69.23181062 -118 69 C-118 69.66 -118 70.32 -118 71 C-117.36863632 70.98010513 -116.73727264 70.96021027 -116.08677673 70.93971252 C-105.91011726 70.77058128 -95.8734974 71.7723635 -85.75390625 72.71484375 C-83.81008958 72.89220588 -81.86623612 73.06916525 -79.92234802 73.2457428 C-75.8718256 73.61482041 -71.82165715 73.98750093 -67.77172852 74.36303711 C-62.58506801 74.84386066 -57.39778086 75.31747501 -52.21023655 75.78865719 C-48.20633536 76.15279652 -44.20269667 76.51975454 -40.19914055 76.8876667 C-38.28585655 77.06333408 -36.37251279 77.23835193 -34.45910835 77.41270256 C-31.79092014 77.65644892 -29.12308599 77.90375586 -26.45532227 78.15209961 C-25.66928619 78.22331024 -24.88325012 78.29452087 -24.07339478 78.3678894 C-20.32752555 78.72036064 -16.67131806 79.16760499 -13 80 C-11.63063113 85.88578941 -10.26141559 91.77161446 -8.89233398 97.6574707 C-8.42785654 99.65422498 -7.96333927 101.65097 -7.4987793 103.64770508 C-7.27424072 104.61281006 -7.04970215 105.57791504 -6.81835938 106.57226562 C-6.59608673 107.52747101 -6.37381409 108.48267639 -6.14480591 109.46682739 C-5.70366896 111.36420868 -5.26313267 113.26172973 -4.82321167 115.15939331 C-3.89545505 119.16062382 -2.96504659 123.16084317 -2.00634766 127.15478516 C-1.73226074 128.30640137 -1.45817383 129.45801758 -1.17578125 130.64453125 C-0.94415283 131.60335205 -0.71252441 132.56217285 -0.47387695 133.55004883 C0 136 0 136 0 140 C-4.85838917 138.49617902 -9.3630545 136.5449555 -13.95703125 134.39453125 C-14.72404861 134.03880035 -15.49106598 133.68306946 -16.28132629 133.31655884 C-17.93168899 132.55084186 -19.58140381 131.78372723 -21.23052979 131.01535034 C-25.64405831 128.95924053 -30.06253599 126.91381232 -34.48046875 124.8671875 C-35.37455444 124.45268845 -36.26864014 124.03818939 -37.18981934 123.61112976 C-45.3166925 119.84622476 -53.46655773 116.13338262 -61.625 112.4375 C-73.26656746 107.16071061 -84.88873529 101.84313263 -96.5 96.5 C-108.0966369 91.16489466 -119.69900631 85.84275345 -131.31762695 80.55566406 C-132.75774438 79.900289 -134.19768955 79.24453526 -135.63745117 78.58837891 C-137.62233604 77.68401062 -139.60792204 76.78120145 -141.59375 75.87890625 C-142.71458984 75.3691626 -143.83542969 74.85941895 -144.99023438 74.33422852 C-147.63958004 73.1597741 -150.30094442 72.0542009 -153 71 C-153 70.34 -153 69.68 -153 69 C-152.18362061 68.62939453 -151.36724121 68.25878906 -150.52612305 67.87695312 C-130.13922928 58.62035447 -109.76745553 49.33120285 -89.40722656 40.01611328 C-82.83198286 37.00799479 -76.25567226 34.00221023 -69.67944336 30.99624634 C-67.51087408 30.00497066 -65.34234403 29.01360922 -63.17382812 28.0222168 C-56.40764338 24.92890363 -49.64130133 21.83593582 -42.87445068 18.74407959 C-39.71694368 17.30135278 -36.55951876 15.85844639 -33.40209961 14.41552734 C-31.91304531 13.73509961 -30.42395187 13.05475753 -28.93481445 12.37451172 C-27.53169624 11.73355534 -26.12863899 11.09246548 -24.72564697 10.45123291 C-23.39002779 9.84089931 -22.05421756 9.23098357 -20.71820068 8.621521 C-17.53092726 7.1657995 -14.34977322 5.69874789 -11.17871094 4.20800781 C-10.0034082 3.65725586 -8.82810547 3.10650391 -7.6171875 2.5390625 C-6.57933105 2.04873535 -5.54147461 1.5584082 -4.47216797 1.05322266 C-2 0 -2 0 0 0 Z " fill="#7C9CE2" transform="translate(165,186)"/>
<path d="M0 0 C10.7744497 1.54127843 21.3535107 3.98823701 31.96655273 6.3684082 C35.08560867 7.06768082 38.20579157 7.76174169 41.32617188 8.45507812 C43.31256732 8.89813581 45.29889787 9.34148453 47.28515625 9.78515625 C48.21634781 9.99245865 49.14753937 10.19976105 50.10694885 10.41334534 C51.39991127 10.70386024 51.39991127 10.70386024 52.71899414 11.00024414 C53.47555801 11.16964005 54.23212189 11.33903595 55.01161194 11.51356506 C56.69696002 11.92586496 58.35398954 12.45132985 60 13 C61.501708 24.39355726 62.69951272 35.79284419 63.7265625 47.23828125 C63.88054784 48.93784965 64.0346332 50.637409 64.18881226 52.33695984 C64.50833667 55.86712869 64.82568066 59.39748544 65.14160156 62.92797852 C65.54427607 67.4243914 65.9540184 71.92012968 66.36556435 76.41573811 C66.68468116 79.9132424 66.999265 83.41114385 67.312603 86.90917015 C67.46173935 88.56650044 67.61241872 90.22369273 67.76475906 91.88073158 C68.56406726 100.59653929 69.25168604 109.23622638 69 118 C69.66 118 70.32 118 71 118 C70.98010513 117.4422287 70.96021027 116.8844574 70.93971252 116.30978394 C70.75591076 106.36582757 71.80711346 96.5225048 72.71484375 86.6328125 C72.8921605 84.66514182 73.06912084 82.69743898 73.2457428 80.72970581 C73.61511796 76.62616096 73.98779078 72.52293392 74.36303711 68.41992188 C74.84352206 63.16481558 75.3172172 57.90912475 75.78865719 52.65320015 C76.15282077 48.59868937 76.51978021 44.54443561 76.8876667 40.49026108 C77.06337195 38.55185995 77.23838984 36.61339639 77.41270256 34.67486954 C77.6564437 31.97065257 77.90376077 29.2667864 78.15209961 26.56298828 C78.22331024 25.76603043 78.29452087 24.96907257 78.3678894 24.14796448 C78.71803736 20.37652631 79.15924739 16.69552316 80 13 C87.37918754 11.30117912 94.75917308 9.60586447 102.14019489 7.91503143 C105.56741412 7.12981325 108.99434668 6.34338656 112.4206543 5.55419922 C116.35904393 4.64711883 120.29862054 3.74529392 124.23828125 2.84375 C125.46960281 2.55939087 126.70092438 2.27503174 127.96955872 1.98205566 C129.11051498 1.72178589 130.25147125 1.46151611 131.42700195 1.19335938 C132.432939 0.96241577 133.43887604 0.73147217 134.47529602 0.49353027 C137 0 137 0 140 0 C138.49617915 4.85838878 136.54495705 9.36305558 134.39453125 13.95703125 C134.03875504 14.72413925 133.68297882 15.49124725 133.31642151 16.28160095 C132.55065718 17.93205447 131.78349691 19.5818609 131.01507568 21.2310791 C128.96030757 25.64179638 126.91633505 30.05751548 124.87109375 34.47265625 C124.45680115 35.36632904 124.04250854 36.26000183 123.61566162 37.18075562 C119.82975412 45.35289807 116.09328718 53.54691461 112.375 61.75 C111.15251954 64.44539226 109.92980932 67.14068024 108.70703125 69.8359375 C108.40453461 70.50281082 108.10203796 71.16968414 107.79037476 71.85676575 C104.22969636 79.70315743 100.64641176 87.53920023 97.0625 95.375 C96.40201259 96.81949612 95.74153081 98.26399481 95.08105469 99.70849609 C91.93545108 106.58716731 88.78749916 113.4647571 85.63639832 120.34091187 C84.15523836 123.57344433 82.67496346 126.8063817 81.1947937 130.03936768 C80.48798915 131.58250216 79.78074227 133.12543412 79.07302856 134.66815186 C78.0918859 136.80692509 77.11220029 138.94636023 76.1328125 141.0859375 C75.84398697 141.7145166 75.55516144 142.3430957 75.25758362 142.99072266 C73.74704657 146.29476284 72.31683244 149.61397366 71 153 C70.34 153 69.68 153 69 153 C68.4440918 151.77543091 68.4440918 151.77543091 67.87695312 150.52612305 C58.62035447 130.13922928 49.33120285 109.76745553 40.01611328 89.40722656 C37.00799479 82.83198286 34.00221023 76.25567226 30.99624634 69.67944336 C30.00497066 67.51087408 29.01360922 65.34234403 28.0222168 63.17382812 C24.92890363 56.40764338 21.83593582 49.64130133 18.74407959 42.87445068 C17.30135278 39.71694368 15.85844639 36.55951876 14.41552734 33.40209961 C13.73509961 31.91304531 13.05475753 30.42395187 12.37451172 28.93481445 C11.73355534 27.53169624 11.09246548 26.12863899 10.45123291 24.72564697 C9.84089931 23.39002779 9.23098357 22.05421756 8.621521 20.71820068 C7.1657995 17.53092726 5.69874789 14.34977322 4.20800781 11.17871094 C3.65725586 10.0034082 3.10650391 8.82810547 2.5390625 7.6171875 C2.04873535 6.57933105 1.5584082 5.54147461 1.05322266 4.47216797 C0 2 0 2 0 0 Z " fill="#7C9CE2" transform="translate(186,347)"/>
<path d="M0 0 C4.85838878 1.50382085 9.36305558 3.45504295 13.95703125 5.60546875 C14.72413925 5.96124496 15.49124725 6.31702118 16.28160095 6.68357849 C17.93205447 7.44934282 19.5818609 8.21650309 21.2310791 8.98492432 C25.64179638 11.03969243 30.05751548 13.08366495 34.47265625 15.12890625 C35.36632904 15.54319885 36.26000183 15.95749146 37.18075562 16.38433838 C45.35289807 20.17024588 53.54691461 23.90671282 61.75 27.625 C64.44539226 28.84748046 67.14068024 30.07019068 69.8359375 31.29296875 C70.50281082 31.59546539 71.16968414 31.89796204 71.85676575 32.20962524 C79.70315743 35.77030364 87.53920023 39.35358824 95.375 42.9375 C96.81949612 43.59798741 98.26399481 44.25846919 99.70849609 44.91894531 C106.58716731 48.06454892 113.4647571 51.21250084 120.34091187 54.36360168 C123.57344433 55.84476164 126.8063817 57.32503654 130.03936768 58.8052063 C131.58250216 59.51201085 133.12543412 60.21925773 134.66815186 60.92697144 C136.80692509 61.9081141 138.94636023 62.88779971 141.0859375 63.8671875 C141.7145166 64.15601303 142.3430957 64.44483856 142.99072266 64.74241638 C146.29476284 66.25295343 149.61397366 67.68316756 153 69 C153 69.66 153 70.32 153 71 C151.77543091 71.5559082 151.77543091 71.5559082 150.52612305 72.12304688 C130.13922928 81.37964553 109.76745553 90.66879715 89.40722656 99.98388672 C82.83198286 102.99200521 76.25567226 105.99778977 69.67944336 109.00375366 C67.51087408 109.99502934 65.34234403 110.98639078 63.17382812 111.9777832 C56.40764338 115.07109637 49.64130133 118.16406418 42.87445068 121.25592041 C39.71694368 122.69864722 36.55951876 124.14155361 33.40209961 125.58447266 C31.91304531 126.26490039 30.42395187 126.94524247 28.93481445 127.62548828 C27.53169624 128.26644466 26.12863899 128.90753452 24.72564697 129.54876709 C23.39002779 130.15910069 22.05421756 130.76901643 20.71820068 131.378479 C17.53092726 132.8342005 14.34977322 134.30125211 11.17871094 135.79199219 C10.0034082 136.34274414 8.82810547 136.89349609 7.6171875 137.4609375 C6.57933105 137.95126465 5.54147461 138.4415918 4.47216797 138.94677734 C2 140 2 140 0 140 C0.69291143 133.41000122 1.99960861 127.06295911 3.46875 120.60546875 C3.70911987 119.53629715 3.94948975 118.46712555 4.19714355 117.36555481 C4.70304641 115.11870687 5.21076881 112.87226792 5.72021484 110.6262207 C6.50122975 107.18207702 7.2764709 103.73667217 8.05078125 100.29101562 C8.54393516 98.10409095 9.03741336 95.91723936 9.53125 93.73046875 C9.76356323 92.69923386 9.99587646 91.66799896 10.23522949 90.60551453 C10.45215454 89.65054581 10.66907959 88.69557709 10.89257812 87.71166992 C11.08275513 86.87198166 11.27293213 86.0322934 11.46887207 85.16716003 C12 83 12 83 13 80 C32.2187506 77.87142184 51.45007721 75.96194361 70.70629883 74.21020508 C74.38177034 73.87560145 78.05658549 73.53426197 81.73130131 73.19147205 C84.62142917 72.9229705 87.51195916 72.65901056 90.4026165 72.39627647 C92.40509285 72.21320797 94.40715309 72.02560539 96.40919495 71.83784485 C103.6304831 71.18953307 110.74973999 70.83768989 118 71 C118 70.34 118 69.68 118 69 C117.43928299 69.01989487 116.87856598 69.03978973 116.30085754 69.06028748 C106.44198541 69.2420192 96.69036315 68.1970899 86.88671875 67.28515625 C84.94386608 67.10782051 83.00097907 66.93086057 81.05805969 66.7542572 C77.00578544 66.38488627 72.95383192 66.01223111 68.90209961 65.63696289 C63.71657415 65.15677439 58.53049181 64.68295558 53.34418011 64.21134281 C49.34026692 63.84687351 45.33657583 63.48001325 41.33295631 63.1123333 C39.42048638 62.93680176 37.5079692 62.76178432 35.59540367 62.58729744 C32.92495841 62.34311231 30.25480617 62.09594305 27.5847168 61.84790039 C26.80070496 61.77668976 26.01669312 61.70547913 25.20892334 61.6321106 C21.10201786 61.24715435 17.06260653 60.7371802 13 60 C11.62915595 54.13286439 10.26000908 48.26533607 8.89233398 42.39746094 C8.42826535 40.40744719 7.96375852 38.41753556 7.4987793 36.42773438 C0 4.33392761 0 4.33392761 0 0 Z " fill="#7C9CE2" transform="translate(347,186)"/>
<path d="M0 0 C0.66 0 1.32 0 2 0 C2.37060547 0.81637939 2.74121094 1.63275879 3.12304688 2.47387695 C12.37964553 22.86077072 21.66879715 43.23254447 30.98388672 63.59277344 C33.99200521 70.16801714 36.99778977 76.74432774 40.00375366 83.32055664 C40.99502934 85.48912592 41.98639078 87.65765597 42.9777832 89.82617188 C46.07109637 96.59235662 49.16406418 103.35869867 52.25592041 110.12554932 C53.69864722 113.28305632 55.14155361 116.44048124 56.58447266 119.59790039 C57.26490039 121.08695469 57.94524247 122.57604813 58.62548828 124.06518555 C59.26644466 125.46830376 59.90753452 126.87136101 60.54876709 128.27435303 C61.15910069 129.60997221 61.76901643 130.94578244 62.378479 132.28179932 C63.8342005 135.46907274 65.30125211 138.65022678 66.79199219 141.82128906 C67.34274414 142.9965918 67.89349609 144.17189453 68.4609375 145.3828125 C68.95126465 146.42066895 69.4415918 147.45852539 69.94677734 148.52783203 C71 151 71 151 71 153 C63.03105459 151.75485914 55.18217034 150.2290947 47.328125 148.3984375 C45.75547882 148.0364476 45.75547882 148.0364476 44.15106201 147.66714478 C40.84991563 146.90648228 37.54994967 146.14083555 34.25 145.375 C31.99226416 144.85383445 29.73445228 144.3329982 27.4765625 143.8125 C21.98349155 142.54546623 16.49137697 141.27435435 11 140 C9.498292 128.60644274 8.30048728 117.20715581 7.2734375 105.76171875 C7.11945216 104.06215035 6.9653668 102.362591 6.81118774 100.66304016 C6.49166333 97.13287131 6.17431934 93.60251456 5.85839844 90.07202148 C5.45572393 85.5756086 5.0459816 81.07987032 4.63443565 76.58426189 C4.31531884 73.0867576 4.000735 69.58885615 3.687397 66.09082985 C3.53826065 64.43349956 3.38758128 62.77630727 3.23524094 61.11926842 C2.43593274 52.40346071 1.74831396 43.76377362 2 35 C1.34 35 0.68 35 0 35 C0.01989487 35.5577713 0.03978973 36.1155426 0.06028748 36.69021606 C0.24408924 46.63417243 -0.80711346 56.4774952 -1.71484375 66.3671875 C-1.8921605 68.33485818 -2.06912084 70.30256102 -2.2457428 72.27029419 C-2.61511796 76.37383904 -2.98779078 80.47706608 -3.36303711 84.58007812 C-3.84352206 89.83518442 -4.3172172 95.09087525 -4.78865719 100.34679985 C-5.15282077 104.40131063 -5.51978021 108.45556439 -5.8876667 112.50973892 C-6.06337195 114.44814005 -6.23838984 116.38660361 -6.41270256 118.32513046 C-6.6564437 121.02934743 -6.90376077 123.7332136 -7.15209961 126.43701172 C-7.22331024 127.23396957 -7.29452087 128.03092743 -7.3678894 128.85203552 C-7.71803736 132.62347369 -8.15924739 136.30447684 -9 140 C-14.86713561 141.37084405 -20.73466393 142.73999092 -26.60253906 144.10766602 C-28.59255281 144.57173465 -30.58246444 145.03624148 -32.57226562 145.5012207 C-64.66607239 153 -64.66607239 153 -69 153 C-67.49617902 148.14161083 -65.5449555 143.6369455 -63.39453125 139.04296875 C-63.03880035 138.27595139 -62.68306946 137.50893402 -62.31655884 136.71867371 C-61.55084186 135.06831101 -60.78372723 133.41859619 -60.01535034 131.76947021 C-57.95924053 127.35594169 -55.91381232 122.93746401 -53.8671875 118.51953125 C-53.24543892 117.17840271 -53.24543892 117.17840271 -52.61112976 115.81018066 C-48.84622476 107.6833075 -45.13338262 99.53344227 -41.4375 91.375 C-36.16071061 79.73343254 -30.84313263 68.11126471 -25.5 56.5 C-20.16489466 44.9033631 -14.84275345 33.30099369 -9.55566406 21.68237305 C-8.900289 20.24225562 -8.24453526 18.80231045 -7.58837891 17.36254883 C-6.68401062 15.37766396 -5.78120145 13.39207796 -4.87890625 11.40625 C-4.3691626 10.28541016 -3.85941895 9.16457031 -3.33422852 8.00976562 C-2.1597741 5.36041996 -1.0542009 2.69905558 0 0 Z " fill="#7C9CE2" transform="translate(255,12)"/>
</svg>
